PathFileType	4	(X/Y/Z)	./resultDataOpenSim/trcMotMarkerGrf/sub10/qtm-03-02.trc
DataRate	CameraRate	NumFrames	NumMarkers	Units	OrigDataRate	OrigDataStartFrame	OrigNumFrames
250.000000	250.000000	14	24	m	250.000000	361	481
Frame#	Time	L.Toe.Tip			R.Toe.Tip			L.Ankle.Lat			R.Ankle.Lat			L.Ankle.Med			R.Ankle.Med			L.Heel			R.Heel			L.Knee.Lat			R.Knee.Lat			L.Knee.Med			R.Knee.Med			L.Thigh.Upper			R.Thigh.Upper			L.ASIS			R.ASIS			V.Sacral			L.Acromium			R.Acromium			C7			L.Elbow			R.Elbow			L.Wrist.Lat			R.Wrist.Lat
		X1	Y1	Z1	X2	Y2	Z2	X3	Y3	Z3	X4	Y4	Z4	X5	Y5	Z5	X6	Y6	Z6	X7	Y7	Z7	X8	Y8	Z8	X9	Y9	Z9	X10	Y10	Z10	X11	Y11	Z11	X12	Y12	Z12	X13	Y13	Z13	X14	Y14	Z14	X15	Y15	Z15	X16	Y16	Z16	X17	Y17	Z17	X18	Y18	Z18	X19	Y19	Z19	X20	Y20	Z20	X21	Y21	Z21	X22	Y22	Z22	X23	Y23	Z23	X24	Y24	Z24

361	1.44	0.49185179	0.084439659	-0.14762747	0.70688467	0.038009883	-0.012683684	0.42349403	0.20199775	-0.1534545	0.57433953	0.062693283	0.050966384	0.4580899	0.20492504	-0.076489245	0.58165678	0.089680168	-0.034406681	0.36631117	0.22153932	-0.093774626	0.51440336	0.043071197	0.015452081	0.69660557	0.45962244	-0.20567174	0.67851084	0.4498282	0.075341881	0.72983978	0.42462566	-0.091927954	0.66208955	0.45952548	-0.050902083	0.6279476	0.83274673	-0.22642903	0.64833447	0.86983092	0.16160573	0.69283529	0.94525061	-0.17004342	0.72536058	0.95774772	0.074062482	0.51011451	0.96680222	-0.023934654	0.65016476	1.4275497	-0.18899057	0.65253573	1.4192256	0.13387395	0.56709741	1.4528835	-0.03115481	0.56473776	1.0923372	-0.25905293	0.53385842	1.081818	0.19731016	0.73558625	0.91268099	-0.24496548	0.72242293	0.93416294	0.27391983
362	1.444	0.50802354	0.083868552	-0.14846756	0.70693941	0.038021697	-0.012659804	0.43742227	0.19980047	-0.15408575	0.57437051	0.06322364	0.050861364	0.47267086	0.20309523	-0.077266792	0.58203824	0.090280186	-0.034492501	0.37954594	0.21810311	-0.094258888	0.51419323	0.043807992	0.015172961	0.70693921	0.46157399	-0.20568692	0.67936413	0.45025565	0.075984315	0.74049386	0.42671501	-0.092146415	0.6635767	0.45993613	-0.050133471	0.63507989	0.83391049	-0.22665679	0.65185062	0.87023526	0.16171434	0.69926029	0.94635647	-0.16930886	0.72973935	0.95834346	0.074718393	0.51521989	0.9677303	-0.025266407	0.65503171	1.4285724	-0.18894304	0.65700706	1.4201001	0.13398729	0.5720366	1.4537698	-0.031123484	0.56783447	1.0939835	-0.25952267	0.53987405	1.0821314	0.19908837	0.73669842	0.91244173	-0.24684993	0.73220909	0.93816529	0.27418102
363	1.448	0.52441312	0.083208635	-0.14926658	0.70698327	0.038022935	-0.012643752	0.4514115	0.19744599	-0.15462876	0.57439847	0.063762788	0.050725588	0.48728216	0.20112552	-0.077996911	0.5824704	0.090886563	-0.034619714	0.39294349	0.21443986	-0.094760417	0.51407003	0.04456198	0.014839065	0.71723717	0.46345528	-0.20570075	0.68020932	0.45069926	0.076632491	0.75108761	0.42879681	-0.092287273	0.66481702	0.46040525	-0.049495154	0.64239176	0.83503061	-0.22665479	0.65527926	0.87062877	0.16181145	0.70566161	0.94739726	-0.16860016	0.73410101	0.95888321	0.075336787	0.52017856	0.96861194	-0.026613079	0.65990709	1.4295499	-0.1888944	0.66146053	1.4209188	0.13408476	0.57697006	1.4546244	-0.031104656	0.57094661	1.0955773	-0.26000747	0.54609018	1.0823491	0.2007525	0.73779258	0.91218094	-0.24873891	0.74193513	0.94215838	0.27444959
364	1.452	0.5409657	0.082470804	-0.15002305	0.70701282	0.038010095	-0.01263212	0.46549832	0.19491703	-0.15512121	0.57442168	0.064297898	0.05055925	0.50173826	0.19902945	-0.078616636	0.58293227	0.091511665	-0.034760921	0.40651547	0.21055674	-0.095289498	0.51408636	0.04532521	0.014437219	0.72754265	0.46524547	-0.20574129	0.68105111	0.45115565	0.077286539	0.76159291	0.43085974	-0.092359985	0.66586095	0.46092339	-0.048972331	0.64995802	0.83613954	-0.22651691	0.65864194	0.87101593	0.16188138	0.71205471	0.94837548	-0.16792395	0.73844853	0.95937043	0.075924575	0.52501432	0.96945554	-0.027989822	0.6648017	1.4304685	-0.18885197	0.66590059	1.4216854	0.13416405	0.58189139	1.4554348	-0.031100255	0.57405573	1.0971179	-0.26050577	0.55245301	1.0824931	0.20236243	0.73886769	0.91190015	-0.25063046	0.75161308	0.94614749	0.27473538
365	1.456	0.55764062	0.081640645	-0.15073783	0.70703072	0.03798497	-0.012615967	0.47972465	0.192191	-0.15559614	0.57443816	0.06482327	0.050363624	0.51606077	0.19680416	-0.079119155	0.58338841	0.092152152	-0.034893034	0.42027851	0.20647427	-0.095855496	0.51425627	0.046107525	0.01397984	0.73786216	0.46693615	-0.20581222	0.68188885	0.45161681	0.077941996	0.77199227	0.4328947	-0.092371854	0.66684569	0.46147818	-0.048513428	0.65755199	0.83724654	-0.22654949	0.66189825	0.87141388	0.1619477	0.71845692	0.94929529	-0.16728313	0.74278136	0.95980724	0.076484821	0.52985929	0.97025786	-0.029401283	0.66971715	1.4313099	-0.18882511	0.67033346	1.4224025	0.13422937	0.58680108	1.4561922	-0.031111182	0.57714248	1.0986036	-0.26100293	0.55891146	1.0825683	0.20395856	0.73992315	0.91160502	-0.2525302	0.76123742	0.95012142	0.27504132
366	1.46	0.57446466	0.080711856	-0.15142265	0.70704626	0.03795549	-0.012589087	0.49410191	0.18927505	-0.15605613	0.57444366	0.065347128	0.050145138	0.53035985	0.19445127	-0.079521101	0.58379934	0.092782675	-0.035000179	0.43422747	0.20222114	-0.096438882	0.51457635	0.046930499	0.013503414	0.74814154	0.46855199	-0.20586694	0.68272099	0.45207467	0.078592	0.78227915	0.43489469	-0.092324661	0.66799909	0.46205314	-0.048039743	0.66486475	0.83834066	-0.22694015	0.66502863	0.87183673	0.1620248	0.72487072	0.95015868	-0.16667231	0.74709674	0.96019262	0.077013969	0.53483543	0.97100142	-0.030858008	0.6746407	1.4320688	-0.18882421	0.67476366	1.4230711	0.13428771	0.5917068	1.4568916	-0.031137074	0.58021338	1.1000385	-0.26148549	0.56541721	1.0825581	0.20553495	0.74095484	0.91130053	-0.25445229	0.77079484	0.95405305	0.27536066
367	1.464	0.5914707	0.079714135	-0.15208168	0.70707125	0.037933655	-0.012552117	0.50861211	0.18620637	-0.15648162	0.57443748	0.065881733	0.0499133	0.54465492	0.19199484	-0.079821267	0.58415156	0.09338524	-0.035073266	0.44836446	0.19781813	-0.097027829	0.51498811	0.047795215	0.013046369	0.75831359	0.47013558	-0.20584954	0.68354943	0.45252387	0.079232405	0.7924544	0.43685331	-0.092215453	0.66944347	0.46263407	-0.047523697	0.67184061	0.83940668	-0.22757525	0.66808228	0.87227922	0.16209087	0.73128133	0.95095967	-0.16607747	0.75139506	0.96052628	0.077508525	0.53995834	0.97167267	-0.032388815	0.67955544	1.4327653	-0.18884386	0.67919135	1.4236911	0.13434111	0.59661879	1.4575315	-0.031177141	0.58331085	1.1014346	-0.26195874	0.57190512	1.0824436	0.20704419	0.7419586	0.91098387	-0.25641195	0.78027999	0.95791906	0.2756874
368	1.468	0.6086511	0.078689792	-0.15270964	0.70711587	0.037928413	-0.012509858	0.52324021	0.18301926	-0.15685904	0.5744253	0.066433628	0.049678794	0.55884845	0.18948343	-0.079990154	0.58447979	0.093972341	-0.035118644	0.4627293	0.19327383	-0.097671315	0.51537634	0.04866845	0.012610831	0.76836614	0.4717108	-0.20574998	0.68437525	0.45295667	0.079859678	0.8025193	0.43876421	-0.092039707	0.67106322	0.46320904	-0.047025938	0.6786233	0.84042866	-0.22822045	0.67109487	0.8727343	0.16213062	0.73768006	0.95168737	-0.16548334	0.75568105	0.96081221	0.077971055	0.54516487	0.97229557	-0.034039316	0.68445772	1.4334274	-0.18885998	0.68361254	1.4242609	0.1343847	0.60154221	1.4581147	-0.031234062	0.58648161	1.1027991	-0.2624407	0.57831062	1.0822417	0.20843121	0.74294157	0.91064031	-0.2584038	0.78969575	0.9617139	0.27601179
369	1.472	0.62595635	0.077645927	-0.15330937	0.70718558	0.037937215	-0.012469191	0.53799555	0.17972372	-0.15719283	0.57441861	0.06700068	0.049450772	0.57287651	0.18696037	-0.079996268	0.58483686	0.094571614	-0.035165342	0.47733362	0.18858577	-0.098433267	0.51565263	0.049506055	0.012166365	0.77833437	0.47326796	-0.20559838	0.68519439	0.45336437	0.080466869	0.81246085	0.44062143	-0.091803051	0.67271977	0.46375424	-0.046602651	0.68529846	0.84138778	-0.22875799	0.6740457	0.87320884	0.16215735	0.74408494	0.952342	-0.16488672	0.75996086	0.96105844	0.078408371	0.55037957	0.97294213	-0.035819126	0.68935903	1.4340603	-0.18885687	0.68802306	1.4247766	0.1344132	0.60647129	1.4586449	-0.03131218	0.58973963	1.1041258	-0.26293706	0.58463631	1.0820144	0.20969372	0.74392188	0.9102532	-0.26038677	0.79904884	0.96544762	0.27631755
370	1.476	0.643324	0.076548198	-0.15389834	0.70727523	0.037944266	-0.012436857	0.55289804	0.17632061	-0.15749151	0.5744308	0.067570683	0.049231438	0.58686189	0.18442062	-0.079849793	0.58521955	0.095198275	-0.035246429	0.49212501	0.18373835	-0.099328651	0.5158408	0.050283004	0.011717865	0.78823864	0.4747768	-0.20542237	0.68600692	0.45374741	0.081048497	0.8222359	0.44241627	-0.091534117	0.67451227	0.46423407	-0.046221141	0.69187182	0.84227323	-0.22920523	0.67694982	0.87370244	0.16216957	0.7505238	0.95294472	-0.16430633	0.76424022	0.96127348	0.078826769	0.55556618	0.97368637	-0.037598178	0.69427168	1.434647	-0.18884323	0.692425	1.4252357	0.13442716	0.61139623	1.4591206	-0.031411437	0.59306405	1.1054033	-0.26343193	0.59098924	1.0818099	0.21091384	0.74491361	0.90982151	-0.26231592	0.80834987	0.9691349	0.27659982
371	1.48	0.66074476	0.075371168	-0.15449519	0.70736184	0.03793128	-0.012412673	0.56795628	0.17281968	-0.15775828	0.57446923	0.068127772	0.049015063	0.60104834	0.18180181	-0.079623232	0.58555956	0.095850668	-0.035375783	0.50705599	0.17871036	-0.10029928	0.51605531	0.050993559	0.011335414	0.79805144	0.47621058	-0.20521893	0.68683357	0.45411403	0.081610367	0.8317852	0.44413351	-0.091272513	0.6766506	0.46462106	-0.045818047	0.69845421	0.84309697	-0.22959461	0.67988584	0.87419581	0.16213771	0.75698458	0.95352039	-0.1637689	0.76852216	0.96146272	0.079228692	0.56077816	0.97452053	-0.039087821	0.69920057	1.435171	-0.18883448	0.69682762	1.4256407	0.13443215	0.61631559	1.459535	-0.031528243	0.59642791	1.1066247	-0.26390874	0.5975044	1.081614	0.21219619	0.74591262	0.90935951	-0.26419146	0.81760811	0.97278001	0.27686902
372	1.484	0.67830162	0.074137034	-0.15510616	0.70741739	0.037899752	-0.012386755	0.58316874	0.16923256	-0.15800029	0.57452885	0.068666991	0.04879537	0.61561913	0.17900987	-0.079436833	0.58582705	0.096523916	-0.03554534	0.52211713	0.17349022	-0.10115227	0.51637404	0.05164351	0.011069085	0.80772389	0.47756198	-0.20495845	0.68772093	0.45446812	0.082172007	0.8411105	0.44576761	-0.091015367	0.67911183	0.46490684	-0.045401825	0.70533759	0.84387656	-0.22989674	0.68289941	0.87467145	0.162043	0.76338872	0.95407115	-0.16328153	0.77280553	0.96162863	0.07961341	0.56616335	0.97532972	-0.03998709	0.70414599	1.4356274	-0.18883242	0.70123758	1.4259955	0.13443258	0.62123695	1.459883	-0.03165946	0.59982729	1.1077901	-0.26437192	0.60422767	1.0813833	0.21356967	0.74689789	0.90887597	-0.26604915	0.82683446	0.97637311	0.27713186
373	1.488	0.69608916	0.072897134	-0.15572227	0.70744595	0.037878004	-0.012349161	0.59853276	0.16556465	-0.15823082	0.57459581	0.069195336	0.048570226	0.63060634	0.17598515	-0.079389386	0.58608486	0.097211249	-0.035726284	0.53733298	0.16809484	-0.1015976	0.51674016	0.052266248	0.010856436	0.81723435	0.47883514	-0.20461607	0.6887128	0.45480544	0.082749574	0.85032591	0.44734371	-0.090685499	0.68163335	0.46510259	-0.045049822	0.71276671	0.84460595	-0.2300581	0.68595561	0.87512709	0.16189663	0.76965752	0.95457818	-0.16283046	0.77708687	0.96177182	0.079980285	0.57185581	0.97598526	-0.040211661	0.70910473	1.4360184	-0.1888317	0.70565075	1.4262991	0.13442774	0.6261663	1.4601652	-0.031801758	0.60326972	1.1089029	-0.26483328	0.61110851	1.0810931	0.21498356	0.74785214	0.90836436	-0.26791347	0.83605679	0.97990312	0.27738319
374	1.492	0.71408367	0.071696698	-0.1563205	0.70749058	0.037892312	-0.012295662	0.61404345	0.1618175	-0.15845716	0.57465808	0.06971808	0.04833758	0.64589585	0.17277101	-0.079484295	0.58641479	0.09789443	-0.035885574	0.55278409	0.16256958	-0.10146242	0.51702262	0.052910362	0.010566917	0.82659971	0.48002849	-0.20419311	0.68977153	0.45512151	0.083317746	0.8595209	0.44888401	-0.090223957	0.68403975	0.4652279	-0.044832585	0.72057389	0.84527029	-0.23010459	0.68898382	0.87557007	0.16173126	0.775806	0.955027	-0.16240408	0.7813612	0.96189108	0.080328312	0.57781175	0.97644043	-0.040102694	0.71407043	1.4363447	-0.18883741	0.71005815	1.4265459	0.13441301	0.63110109	1.4603857	-0.031953372	0.60674468	1.1099638	-0.26529033	0.61808814	1.0807421	0.21638805	0.74877901	0.90782088	-0.26979102	0.84530517	0.98336413	0.27761438
